<svg xmlns="http://www.w3.org/2000/svg" xmlns:xlink="http://www.w3.org/1999/xlink" width="256" height="256" viewBox="0 0 256 256"><defs><clipPath id="b"><rect width="256" height="256"/></clipPath></defs><g id="a" clip-path="url(#b)"><rect width="256" height="256" fill="#fff"/><path d="M-1524-34h-128v-99.712l-44.353,44.353.012.013-.036.011-.02.021-.01-.011L-1737-76.265l13.06-40.593-.034-.034L-1678.866-162H-1652v-26.866L-1678.866-162H-1780V-290h128v101.134L-1593.867-247l27.577,27.577L-1623.713-162H-1652v28.288L-1623.713-162H-1524V-34Z" transform="translate(1780 290)" fill="#ff9800"/><path d="M-1780-226v-64h64v8h-56v56Z" transform="translate(1818 328)" fill="#fff"/><path d="M0,64V0H64V8H8V64Z" transform="translate(218 218) rotate(180)" fill="#fff"/></g></svg>